<?xml version="1.0" encoding="UTF-8"?>
<!-- Created with Inkscape (http://www.inkscape.org/) -->
<svg width="238.92mm" height="202.67mm" version="1.1" viewBox="0 0 238.92 202.67" xmlns="http://www.w3.org/2000/svg">
 <defs>
  <clipPath id="clip0_1_137">
   <rect width="903" height="766" fill="#fff"/>
  </clipPath>
 </defs>
 <g transform="translate(.91172 -49.883)">
  <g transform="matrix(.26458 0 0 .26458 -.91172 49.878)" fill="none">
   <g clip-path="url(#clip0_1_137)" opacity=".3">
    <path d="m871.4 320.69c-45.158 57.752-130.37 70.977-200.87 50.862-23.07-6.742-45.325-16.008-66.364-27.629-12.22-6.636-24.148-13.916-35.832-21.674-2.875-1.9-5.749-3.83-8.595-5.798-1.939-1.326-3.872-2.667-5.798-4.025-24.129-16.977-47.312-35.601-70.106-54.118-56.901-46.223-115.36-93.87-185.27-115.92-14.403-4.541-33.035-6.666-41.942 5.535-7.728 10.594-3.011 25.593 3.528 36.956 24.255 42.091 68.282 68.668 112.35 89.104 44.067 20.437 90.745 36.995 129.05 66.875 38.308 29.88 67.553 77.37 59.718 125.31-6.754 41.312-40.481 74.876-79.695 89.504-39.213 14.618-82.948 12.581-123.71 3.089-40.763-9.502-79.46-26.079-118.8-40.366-23.719-8.625-54.727-14.589-70.466 5.145-13.291 16.675-5.652 42.979 10.535 56.856 16.186 13.878 38.093 18.527 58.996 22.698 64.901 12.962 129.8 25.92 194.7 38.875 19.909 3.967 40.286 8.118 57.632 18.683 17.346 10.554 31.34 28.993 30.843 49.293-0.497 20.008-15.144 37.686-33.094 46.545-17.941 8.849-38.659 10.213-58.645 9.258-74.9-3.586-289.63-122.59-341.13-137.8-33.094-9.765-69.277-24.11-83.232-55.667-17.375-39.284 11.217-86.814 50.245-104.76 39.019-17.951 84.255-13.975 126.78-7.932 42.527 6.042 86.457 13.731 127.85 2.251 41.396-11.48 79.324-48.904 75.241-91.667-3.558-37.209-37.07-65.247-72.338-77.605-27.607-9.677-56.978-12.309-85.979-16.665-8.05-1.199-16.07-2.544-24.012-4.2-20.34-4.262-40.18-10.631-59.2-19.004-19.96-8.768-38.921-19.651-56.56-32.463-14.069-10.203-27.216-21.62-39.292-34.119-1.8419-1.91-3.6644-3.863-5.4673-5.857-1.7149-1.911-3.4107-3.86-5.0671-5.848-21.556-25.758-37.48-57.48-32.704-90.166 4.765-32.599 30.17-59.741 60.419-72.78 17.482-7.5334 36.339-10.905 55.429-11.393 13.959-0.279 27.914 0.72578 41.689 3.0017 63.742 10.194 122.15 41.166 177.32 74.7 55.157 33.534 108.91 70.344 168.87 94.25 59.961 23.915 128.21 34.041 189.04 12.415 60.828-21.615 110.8-80.596 107.83-145.08 40.344 34.743 74.627 78.414 89.81 129.44s9.082 109.95-23.709 151.9z" fill="#3f3d56"/>
    <path d="m580.71 254.04c3.917 0 7.092-3.176 7.092-7.093s-3.175-7.093-7.092-7.093-7.092 3.176-7.092 7.093 3.175 7.093 7.092 7.093z" fill="#6c63ff"/>
    <path d="m831.16 164.36c6.056 0 10.966-4.91 10.966-10.966s-4.91-10.966-10.966-10.966c-6.055 0-10.965 4.91-10.965 10.966s4.91 10.966 10.965 10.966z" fill="#eba031"/>
    <path d="m111.98 502.44c2.238 0 4.052-1.814 4.052-4.052s-1.814-4.052-4.052-4.052c-2.237 0-4.051 1.814-4.051 4.052s1.814 4.052 4.051 4.052z" fill="#ff6584"/>
    <path d="m228.27 265.47c2e-3 3.515-0.423 7.016-1.267 10.428-8.05-1.199-16.07-2.544-24.012-4.2-20.34-4.262-40.18-10.631-59.2-19.004 3.058-9.877 9.557-18.329 18.315-23.822 8.758-5.494 19.196-7.664 29.418-6.118s19.551 6.706 26.293 14.544c6.742 7.837 10.451 17.833 10.453 28.172z" fill="#ff6584"/>
    <g fill="#f0f0f0">
     <path d="m761 228.68c2.288 0 4.143-1.855 4.143-4.144 0-2.288-1.855-4.144-4.143-4.144-2.289 0-4.144 1.856-4.144 4.144 0 2.289 1.855 4.144 4.144 4.144z"/>
     <path d="m381.92 684.77c2.288 0 4.143-1.855 4.143-4.144 0-2.288-1.855-4.143-4.143-4.143-2.289 0-4.144 1.855-4.144 4.143 0 2.289 1.855 4.144 4.144 4.144z"/>
     <path d="m441.36 742.27c2.288 0 4.143-1.855 4.143-4.143 0-2.289-1.855-4.144-4.143-4.144-2.289 0-4.144 1.855-4.144 4.144 0 2.288 1.855 4.143 4.144 4.143z"/>
     <path d="m73.975 578.54c2.2884 0 4.1435-1.855 4.1435-4.144 0-2.288-1.8551-4.144-4.1435-4.144s-4.1435 1.856-4.1435 4.144c0 2.289 1.8551 4.144 4.1435 4.144z"/>
     <path d="m277.64 501.55c2.289 0 4.144-1.855 4.144-4.143 0-2.289-1.855-4.144-4.144-4.144-2.288 0-4.143 1.855-4.143 4.144 0 2.288 1.855 4.143 4.143 4.143z"/>
     <path d="m257.18 90.289c2.288 0 4.144-1.8552 4.144-4.1438 0-2.2885-1.856-4.1438-4.144-4.1438s-4.143 1.8553-4.143 4.1438c0 2.2886 1.855 4.1438 4.143 4.1438z"/>
     <path d="m507.63 414.82c2.288 0 4.143-1.855 4.143-4.143 0-2.289-1.855-4.144-4.143-4.144-2.289 0-4.144 1.855-4.144 4.144 0 2.288 1.855 4.143 4.144 4.143z"/>
     <path d="m538.81 486.94c2.288 0 4.143-1.855 4.143-4.144 0-2.288-1.855-4.144-4.143-4.144-2.289 0-4.144 1.856-4.144 4.144 0 2.289 1.855 4.144 4.144 4.144z"/>
    </g>
    <path d="m165.32 99.372c0.031 20.922-4.913 41.552-14.422 60.188-1.257 2.456-2.589 4.87-3.996 7.241-13.925 23.519-34.76 42.174-59.668 53.426-14.069-10.204-27.216-21.62-39.292-34.119-1.8419-1.911-3.6643-3.863-5.4672-5.858-1.7149-1.91-3.4108-3.859-5.0671-5.847-21.556-25.758-37.48-57.48-32.704-90.166 4.7649-32.599 30.17-59.741 60.419-72.78 17.482-7.5334 36.339-10.905 55.429-11.393 14.927 13.183 26.694 29.558 34.429 47.91 0.974 2.3097 1.871 4.6486 2.719 7.0168 5.057 14.25 7.635 29.261 7.62 44.382z" fill="#6c63ff"/>
    <path d="m225.74 106.19c0 20.301-19.821 39.129-55.819 53.036-7.202 2.787-14.91 5.311-23.018 7.572-30.346 8.46-66.461 13.147-104.43 13.449-1.7149-1.91-3.4107-3.859-5.0671-5.847 0.4092 0.01 0.8184 0.01 1.2276 0.01 41.231 0 80.347-5.224 112.26-14.853 5.895-1.783 11.548-3.713 16.917-5.788 33.094-12.777 52.077-30.124 52.077-47.579 0-17.454-18.983-34.792-52.077-47.578-3.274-1.267-6.646-2.4754-10.115-3.6254-0.848-2.3682-1.745-4.7071-2.719-7.0169 5.184 1.6178 10.164 3.346 14.939 5.1847 35.998 13.907 55.819 32.745 55.819 53.035z" fill="#e4e4e4"/>
    <g fill="#f0f0f0">
     <path d="m44.74 33.764c2.2885 0 4.1436-1.8552 4.1436-4.1438s-1.8551-4.1438-4.1436-4.1438c-2.2884 0-4.1435 1.8552-4.1435 4.1438s1.8551 4.1438 4.1435 4.1438z"/>
     <path d="m131.47 60.078c2.288 0 4.144-1.8552 4.144-4.1438s-1.856-4.1438-4.144-4.1438-4.144 1.8552-4.144 4.1438 1.856 4.1438 4.144 4.1438z"/>
     <path d="m86.643 138.14c22.254 0 40.294-18.042 40.294-40.297 0-22.255-18.04-40.297-40.294-40.297-22.254 0-40.294 18.042-40.294 40.297 0 22.255 18.04 40.297 40.294 40.297z"/>
     <path d="m830.77 311.12c-9.044 2.67-28.982 4.639-50.908 5.847-21.916 1.199-45.957 1.725-69.696 2.232-41.552 0.896-83.102 1.796-124.65 2.699-5.711 0.127-11.441 0.244-17.19 0.351-2.875-1.9-5.749-3.83-8.595-5.798 5.097 0.029 10.193 0 15.251-0.098 21.604-0.429 39.896-2.115 60.73-2.914 32.061-1.238 66.675-0.263 100.09 0.234 33.415 0.507 71.489 0.322 94.965-2.553z" opacity=".3"/>
     <path d="m193.03 618.33-132.45-110.35 128.68 114.77c0.249 0.42 0.594 0.774 1.008 1.033 0.413 0.26 0.883 0.417 1.369 0.459s0.976-0.033 1.427-0.218c0.452-0.185 0.853-0.476 1.17-0.847s0.541-0.812 0.654-1.287c0.112-0.475 0.11-0.97-7e-3 -1.444s-0.346-0.913-0.666-1.281c-0.321-0.368-0.725-0.655-1.178-0.835z" opacity=".3"/>
     <path d="m92.49 200.42c2.2885 0 4.1436-1.856 4.1436-4.144 0-2.289-1.8551-4.144-4.1436-4.144-2.2884 0-4.1435 1.855-4.1435 4.144 0 2.288 1.8551 4.144 4.1435 4.144z"/>
    </g>
    <path d="m440.49 676.42h17.138l8.154-66.112-25.295 1e-3z" fill="#ffb6b6"/>
    <path d="m436.12 670.82h4.824l18.834-7.66 10.095 7.659h1e-3c5.704 0 11.175 2.266 15.209 6.3s6.3 9.506 6.3 15.21v0.699l-55.262 3e-3z" fill="#2f2e41"/>
    <path d="m312.14 676.42h-17.138l-8.154-66.112 25.295 1e-3z" fill="#ffb6b6"/>
    <path d="m316.51 693.03-55.262-3e-3v-0.699c0-5.704 2.267-11.176 6.3-15.21 4.034-4.034 9.505-6.3 15.209-6.3h2e-3l10.094-7.659 18.834 7.66h4.824z" fill="#2f2e41"/>
    <path d="m373.55 169.76-17.354 13.215-46.098 12.209s16.518 115.94 8.722 123.73c-7.796 7.797-0.765 8.006-2.332 18.134-1.566 10.129-7.809 36.869-7.809 36.869h137.59s1.109-16.619-5.673-20.218c-6.783-3.599 6.252-20.397 0.709-23.205-5.543-2.809 2.253-27.173 2.253-27.173l16.895-79.767-44.938-35.162-6.834-16.468z" fill="#6c63ff"/>
    <path d="m395.2 273.36c3.316 0 6.005-2.689 6.005-6.005s-2.689-6.005-6.005-6.005-6.004 2.689-6.004 6.005 2.688 6.005 6.004 6.005z" fill="#f2f2f2"/>
    <path d="m308.68 373.92-5.673 146.11s-24.498 107.91-20.242 110.75c4.255 2.837 6.057 19.754 6.057 19.754l24.114 2.837s0-11.348 5.673-15.604c5.674-4.256 58.156-204.27 58.156-204.27l51.2 193.38s1.281 10.885 5.537 10.885c4.255 0 5.673 15.604 5.673 15.604h24.113v-15.604s10.835-3.435 6.58-14.783-23.601-249.06-23.601-249.06z" fill="#2f2e41"/>
    <path d="m391.57 161.05c16.06 0 29.078-13.019 29.078-29.079 0-16.061-13.018-29.08-29.078-29.08-16.059 0-29.077 13.019-29.077 29.08 0 16.06 13.018 29.079 29.077 29.079z" fill="#ffb6b6"/>
    <path d="m441.3 262.56 5.673 4.256 2.837-19.86z" fill="#000" opacity=".1"/>
    <path d="m312.82 195.07s-7.092-1.419-11.347 11.348c-4.256 12.766-19.858 60.996-19.858 69.507s97.167 46.064 97.167 46.064l-10.11-35.47-44.505-23.361z" fill="#6c63ff"/>
    <path d="m383.28 316.73c9.15 0 16.567-7.418 16.567-16.568s-7.417-16.567-16.567-16.567c-9.149 0-16.566 7.417-16.566 16.567s7.417 16.568 16.566 16.568z" fill="#ffb6b6"/>
    <path d="m322.87 245.59 1.297 17.57 41.154 21.602-36.604-24.554z" fill="#000" opacity=".1"/>
    <path d="m421.8 248.09h-0.534v-14.627c0-1.112-0.219-2.212-0.644-3.239s-1.049-1.961-1.835-2.747-1.719-1.409-2.746-1.835c-1.027-0.425-2.128-0.644-3.239-0.644h-30.987c-1.111 0-2.212 0.219-3.239 0.644-1.027 0.426-1.96 1.049-2.746 1.835s-1.41 1.72-1.835 2.747-0.644 2.127-0.644 3.239v80.242c0 1.112 0.219 2.213 0.644 3.24s1.049 1.96 1.835 2.746 1.719 1.41 2.746 1.835c1.027 0.426 2.128 0.645 3.239 0.645h30.987c1.111 0 2.212-0.219 3.239-0.645 1.027-0.425 1.96-1.049 2.746-1.835s1.41-1.719 1.835-2.746 0.644-2.128 0.644-3.24v-55.204h0.534z" fill="#f0f0f0"/>
    <path d="m460.45 223.55s4.255 2.837 7.092 15.603c2.836 12.767 21.276 60.997 14.184 72.345s-9.186 23.46-33.299 6.438l-33.367-30.553 24.113-22.696 9.929 7.092z" fill="#6c63ff"/>
    <path d="m397.69 260.76c3.917 0 7.092-3.176 7.092-7.093s-3.175-7.092-7.092-7.092-7.092 3.175-7.092 7.092 3.175 7.093 7.092 7.093z" fill="#6c63ff"/>
    <path d="m418.22 285.78c9.149 0 16.566-7.417 16.566-16.567 0-9.151-7.417-16.568-16.566-16.568-9.15 0-16.567 7.417-16.567 16.568 0 9.15 7.417 16.567 16.567 16.567z" fill="#ffb6b6"/>
    <path d="m322.08 298.62 47.557 21.038-48.879-9.554z" fill="#000" opacity=".1"/>
    <path d="m362.23 137.77-3.992-15.195c-1.042-3.965-2.092-8.01-1.858-12.103 0.234-4.092 1.97-8.316 5.418-10.533 3.447-2.2172 8.711-1.6934 10.929 1.754 0.422-5.5045 5.429-9.7382 10.741-11.238 5.312-1.4999 10.952-0.9067 16.466-0.6537 5.514 0.2531 11.334 0.0764 16.093-2.7203 0.363 1.0882 0.339 2.2682-0.067 3.3408-0.407 1.0727-1.171 1.9722-2.163 2.5468 1.183 0.3229 2.444 0.1842 3.529-0.3879 1.084-0.5721 1.911-1.5349 2.313-2.6936 0.036 3.1876-1.142 6.2696-3.295 8.6203 2.054-1.0189 4.413-1.2373 6.619-0.6127 2.205 0.6247 4.1 2.0476 5.315 3.9923 2.428 4.211 1.067 9.499-0.353 14.148l-7.293 23.859c-1.106-3.627-1.315-7.456-1.907-11.202-0.591-3.745-1.644-7.57-4.116-10.445s-6.672-4.54-10.185-3.113c-1.971 0.801-3.473 2.426-5.253 3.592-3.651 2.393-8.295 2.736-12.632 2.249-4.338-0.487-8.565-1.722-12.902-2.215-2.716-0.309-5.746-0.227-7.795 1.581-1.409 1.465-2.34 3.323-2.669 5.329-0.967 3.997-1.347 8.114-1.128 12.221" fill="#2f2e41"/>
   </g>
  </g>
 </g>
</svg>
